<svg width="82" height="30" viewBox="0 0 82 30" fill="none" xmlns="http://www.w3.org/2000/svg">
<path d="M9.28265 29.9099C6.05279 29.9099 2.65951 29.3033 0 27.8424V2.06746C2.61786 0.647867 6.01114 0 9.28265 0C12.5542 0 15.8673 0.606582 18.482 2.06746V11.957H11.8973V5.2274C11.1219 4.90347 10.1798 4.78278 9.241 4.78278C8.30216 4.78278 7.44022 4.90347 6.62314 5.2274V24.6825C7.39857 25.0064 8.29895 25.1271 9.241 25.1271C10.183 25.1271 11.0802 25.0064 11.8973 24.6825V17.9561H18.482V27.8456C15.9058 29.2652 12.5125 29.8718 9.28265 29.913V29.9099Z" fill="#F7DD43"/>
<path d="M30.8311 29.9099C27.3545 29.9099 24.0029 29.1794 21.3434 27.6804V2.18814C23.9612 0.730438 27.3161 0 30.8311 0C34.3461 0 37.6177 0.689153 40.2355 2.18814V27.6804C37.6593 29.1794 34.266 29.8686 30.8311 29.9099ZM33.654 5.30997C32.8786 4.98604 31.9366 4.82407 30.7927 4.82407C29.6487 4.82407 28.7484 4.98604 27.9697 5.30997V24.5618C28.7451 24.927 29.6872 25.089 30.7927 25.089C31.8981 25.089 32.8369 24.927 33.654 24.5618V5.30997Z" fill="#F7DD43"/>
<path d="M51.7259 18.966H49.9668V29.5446H43.302V0.365219H51.7259C55.7344 0.365219 58.7592 1.17505 61.1303 2.83601V16.4952C58.8008 18.118 55.7312 18.966 51.7259 18.966ZM54.5072 5.38937C53.8951 4.94475 53.0749 4.7415 51.6842 4.7415H49.8834V14.5897H51.6842C53.0332 14.5897 53.8503 14.3865 54.5072 13.9831V5.38937Z" fill="#F7DD43"/>
<path d="M75.0719 29.5446V18.966H70.1662V29.5446H63.5431V2.14685C65.9559 0.727263 69.3492 0 72.6207 0C75.8922 0 79.2438 0.730439 81.6566 2.14685V29.5446H75.0719ZM75.0719 5.06543C74.3766 4.7415 73.5179 4.57953 72.6175 4.57953C71.7171 4.57953 70.8583 4.7415 70.163 5.06543V14.3452H75.0687V5.06543H75.0719Z" fill="#F7DD43"/>
</svg>
